<svg class="svg-icon" style="width: 1em; height: 1em;vertical-align: middle;fill: currentColor;overflow: hidden;" viewBox="0 0 1024 1024" version="1.1" xmlns="http://www.w3.org/2000/svg"><path d="M793.352411 160.163793l-562.752918 0c-38.70758 0-70.346161 31.66314-70.346161 70.342068l0 633.125685 140.692323-140.661623 492.405733 0c38.703487 0 70.394257-31.667234 70.394257-70.396303l0-422.067758C863.746668 191.827957 832.055898 160.163793 793.352411 160.163793M406.45671 476.764498l-70.344115 0 0-70.343091 70.344115 0L406.45671 476.764498zM547.197128 476.764498l-70.346161 0 0-70.343091 70.346161 0L547.197128 476.764498zM687.887404 476.764498l-70.345138 0 0-70.343091 70.345138 0L687.887404 476.764498z"  /></svg>